<?xml version="1.0" encoding="iso-8859-1"?>
<!-- Generator: Adobe Illustrator 19.0.0, SVG Export Plug-In . SVG Version: 6.00 Build 0)  -->
<svg version="1.1" id="Layer_1" xmlns="http://www.w3.org/2000/svg" xmlns:xlink="http://www.w3.org/1999/xlink" x="0px" y="0px"
	 viewBox="0 0 512 512" style="enable-background:new 0 0 512 512;" xml:space="preserve">
<path style="fill:#FFDA79;" d="M426.412,512H85.588c-11.291,0-20.445-9.154-20.445-20.445V40.003
	c0-11.291,9.154-20.445,20.445-20.445h94.508c11.291,0,20.445,9.154,20.445,20.445v41.775h110.919V40.003
	c0-11.291,9.154-20.445,20.445-20.445h94.508c11.291,0,20.445,9.154,20.445,20.445v451.552C446.857,502.846,437.703,512,426.412,512
	z"/>
<path style="fill:#FFD155;" d="M426.412,19.559h-94.508c-11.291,0-20.445,9.154-20.445,20.445v41.775H256V512h170.412
	c11.291,0,20.445-9.154,20.445-20.445V40.003C446.857,28.712,437.703,19.559,426.412,19.559z"/>
<path style="fill:#36495E;" d="M331.904,122.667H180.096c-11.291,0-20.445-9.154-20.445-20.445V20.445
	C159.652,9.154,168.805,0,180.096,0h151.808c11.291,0,20.445,9.154,20.445,20.445v81.778
	C352.348,113.514,343.195,122.667,331.904,122.667z"/>
<g>
	<path style="fill:#6A82A1;" d="M223.499,275.32h-65.423c-11.291,0-20.445-9.154-20.445-20.445v-65.423
		c0-11.291,9.154-20.445,20.445-20.445h65.423c11.291,0,20.445,9.154,20.445,20.445v65.423
		C243.943,266.166,234.791,275.32,223.499,275.32z"/>
	<path style="fill:#6A82A1;" d="M223.499,422.521h-65.423c-11.291,0-20.445-9.154-20.445-20.445v-65.423
		c0-11.291,9.154-20.445,20.445-20.445h65.423c11.291,0,20.445,9.154,20.445,20.445v65.423
		C243.943,413.367,234.791,422.521,223.499,422.521z"/>
</g>
<g>
	<path style="fill:#2C3E50;" d="M331.904,0H256v122.667h75.904c11.291,0,20.445-9.154,20.445-20.445V20.445
		C352.348,9.154,343.195,0,331.904,0z"/>
	<path style="fill:#2C3E50;" d="M353.924,242.609h-73.6c-11.291,0-20.445-9.154-20.445-20.445s9.154-20.445,20.445-20.445h73.6
		c11.291,0,20.445,9.154,20.445,20.445S365.215,242.609,353.924,242.609z"/>
	<path style="fill:#2C3E50;" d="M353.924,389.81h-73.6c-11.291,0-20.445-9.154-20.445-20.445c0-11.291,9.154-20.445,20.445-20.445
		h73.6c11.291,0,20.445,9.154,20.445,20.445C374.369,380.656,365.215,389.81,353.924,389.81z"/>
</g>
<g>
</g>
<g>
</g>
<g>
</g>
<g>
</g>
<g>
</g>
<g>
</g>
<g>
</g>
<g>
</g>
<g>
</g>
<g>
</g>
<g>
</g>
<g>
</g>
<g>
</g>
<g>
</g>
<g>
</g>
</svg>
